<svg xmlns="http://www.w3.org/2000/svg" width="1000" height="700" viewBox="0 0 1000 700">
  <!-- 背景 -->
  <rect width="1000" height="700" fill="#f8f9fa"/>

  <!-- 标题 -->
  <text x="500" y="40" font-family="Arial" font-size="24" text-anchor="middle" font-weight="bold">PhoenixCoder 系统架构图</text>

  <!-- 客户端 -->
  <rect x="50" y="100" width="150" height="80" rx="10" fill="#4285f4"/>
  <text x="125" y="145" font-family="Arial" font-size="16" text-anchor="middle" fill="white" font-weight="bold">客户端</text>

  <!-- Nginx 反向代理 -->
  <rect x="300" y="100" width="200" height="80" rx="10" fill="#2196f3"/>
  <text x="400" y="145" font-family="Arial" font-size="16" text-anchor="middle" fill="white" font-weight="bold">Nginx 反向代理</text>

  <!-- 管理前端 -->
  <rect x="550" y="50" width="180" height="80" rx="10" fill="#673ab7"/>
  <text x="640" y="95" font-family="Arial" font-size="16" text-anchor="middle" fill="white" font-weight="bold">管理前端
(React)</text>

  <!-- API服务 -->
  <rect x="550" y="150" width="180" height="80" rx="10" fill="#4caf50"/>
  <text x="640" y="195" font-family="Arial" font-size="16" text-anchor="middle" fill="white" font-weight="bold">API服务
(FastAPI)</text>

  <!-- 认证服务 -->
  <rect x="550" y="250" width="180" height="80" rx="10" fill="#ff9800"/>
  <text x="640" y="295" font-family="Arial" font-size="16" text-anchor="middle" fill="white" font-weight="bold">认证服务
(OIDC Server)</text>

  <!-- PostgreSQL数据库 -->
  <rect x="200" y="350" width="180" height="80" rx="10" fill="#3f51b5"/>
  <text x="290" y="395" font-family="Arial" font-size="16" text-anchor="middle" fill="white" font-weight="bold">PostgreSQL
数据库</text>

  <!-- Redis缓存 -->
  <rect x="420" y="350" width="180" height="80" rx="10" fill="#e91e63"/>
  <text x="510" y="395" font-family="Arial" font-size="16" text-anchor="middle" fill="white" font-weight="bold">Redis
缓存</text>

  <!-- RabbitMQ消息队列 -->
  <rect x="640" y="350" width="180" height="80" rx="10" fill="#00bcd4"/>
  <text x="730" y="395" font-family="Arial" font-size="16" text-anchor="middle" fill="white" font-weight="bold">RabbitMQ
消息队列</text>

  <!-- 健康检查 -->
  <rect x="300" y="470" width="150" height="60" rx="10" fill="#8bc34a"/>
  <text x="375" y="505" font-family="Arial" font-size="16" text-anchor="middle" fill="white" font-weight="bold">健康检查
/health</text>

  <!-- 网络 -->
  <rect x="100" y="570" width="800" height="60" rx="10" fill="#9e9e9e"/>
  <text x="500" y="605" font-family="Arial" font-size="16" text-anchor="middle" fill="white" font-weight="bold">phoenixcoder-network 桥接网络</text>

  <!-- 连接线路 -->
  <!-- 客户端到Nginx -->
  <line x1="200" y1="140" x2="300" y2="140" stroke="#333" stroke-width="2"/>
  <polygon points="300,140 290,135 290,145" fill="#333"/>

  <!-- Nginx到管理前端 -->
  <line x1="400" y1="100" x2="400" y2="90" stroke="#333" stroke-width="2"/>
  <line x1="400" y1="90" x2="550" y2="90" stroke="#333" stroke-width="2"/>
  <polygon points="550,90 540,85 540,95" fill="#333"/>
  <text x="475" y="75" font-family="Arial" font-size="12" text-anchor="middle">/</text>

  <!-- Nginx到API服务 -->
  <line x1="400" y1="140" x2="550" y2="190" stroke="#333" stroke-width="2"/>
  <polygon points="550,190 540,180 540,200" fill="#333"/>
  <text x="475" y="155" font-family="Arial" font-size="12" text-anchor="middle">/api/</text>

  <!-- Nginx到认证服务 -->
  <line x1="400" y1="180" x2="550" y2="290" stroke="#333" stroke-width="2"/>
  <polygon points="550,290 540,280 540,300" fill="#333"/>
  <text x="475" y="230" font-family="Arial" font-size="12" text-anchor="middle">/oidc/</text>

  <!-- Nginx到健康检查 -->
  <line x1="400" y1="180" x2="400" y2="470" stroke="#333" stroke-width="2"/>
  <polygon points="400,470 395,460 405,460" fill="#333"/>
  <text x="420" y="350" font-family="Arial" font-size="12" text-anchor="middle" transform="rotate(90, 420, 350)">/health</text>

  <!-- 管理前端到API服务 -->
  <line x1="640" y1="130" x2="640" y2="150" stroke="#333" stroke-width="2"/>
  <polygon points="640,150 635,140 645,140" fill="#333"/>

  <!-- 管理前端到认证服务 -->
  <line x1="730" y1="90" x2="730" y2="290" stroke="#333" stroke-width="2"/>
  <line x1="730" y1="290" x2="640" y2="290" stroke="#333" stroke-width="2"/>
  <polygon points="640,290 650,285 650,295" fill="#333"/>

  <!-- API服务到认证服务 -->
  <line x1="640" y1="230" x2="640" y2="250" stroke="#333" stroke-width="2"/>
  <polygon points="640,250 635,240 645,240" fill="#333"/>

  <!-- 认证服务到PostgreSQL -->
  <line x1="550" y1="290" x2="290" y2="350" stroke="#333" stroke-width="2"/>
  <polygon points="290,350 300,360 280,360" fill="#333"/>

  <!-- 认证服务到Redis -->
  <line x1="640" y1="290" x2="510" y2="350" stroke="#333" stroke-width="2"/>
  <polygon points="510,350 520,360 500,360" fill="#333"/>

  <!-- API服务到PostgreSQL -->
  <line x1="550" y1="190" x2="290" y2="350" stroke="#333" stroke-width="2"/>
  <polygon points="290,350 300,360 280,360" fill="#333"/>

  <!-- API服务到Redis -->
  <line x1="640" y1="190" x2="510" y2="350" stroke="#333" stroke-width="2"/>
  <polygon points="510,350 520,360 500,360" fill="#333"/>

  <!-- API服务到RabbitMQ -->
  <line x1="730" y1="190" x2="730" y2="350" stroke="#333" stroke-width="2"/>
  <polygon points="730,350 725,340 735,340" fill="#333"/>

  <!-- 各服务到网络 -->
  <line x1="125" y1="180" x2="125" y2="570" stroke="#333" stroke-width="2" stroke-dasharray="5,5"/>
  <line x1="400" y1="180" x2="400" y2="570" stroke="#333" stroke-width="2" stroke-dasharray="5,5"/>
  <line x1="640" y1="130" x2="640" y2="570" stroke="#333" stroke-width="2" stroke-dasharray="5,5"/>
  <line x1="640" y1="230" x2="640" y2="570" stroke="#333" stroke-width="2" stroke-dasharray="5,5"/>
  <line x1="640" y1="330" x2="640" y2="570" stroke="#333" stroke-width="2" stroke-dasharray="5,5"/>
  <line x1="290" y1="430" x2="290" y2="570" stroke="#333" stroke-width="2" stroke-dasharray="5,5"/>
  <line x1="510" y1="430" x2="510" y2="570" stroke="#333" stroke-width="2" stroke-dasharray="5,5"/>
  <line x1="730" y1="430" x2="730" y2="570" stroke="#333" stroke-width="2" stroke-dasharray="5,5"/>
  <line x1="375" y1="530" x2="375" y2="570" stroke="#333" stroke-width="2" stroke-dasharray="5,5"/>
</svg>