<svg xmlns="http://www.w3.org/2000/svg" width="1000" height="750" viewBox="0 0 1000 750">
  <!-- 背景 -->
  <rect width="1000" height="750" fill="#f8f9fa"/>

  <!-- 标题 -->
  <text x="500" y="40" font-family="Arial" font-size="24" text-anchor="middle" font-weight="bold">PhoenixCoder 系统架构图</text>

  <!-- 客户端层 -->
  <rect x="450" y="70" width="100" height="60" rx="8" fill="#4285f4"/>
  <text x="500" y="110" font-family="Arial" font-size="16" text-anchor="middle" fill="white" font-weight="bold">客户端</text>

  <!-- 负载均衡层 -->
  <rect x="425" y="150" width="150" height="60" rx="8" fill="#2196f3"/>
  <text x="500" y="190" font-family="Arial" font-size="16" text-anchor="middle" fill="white" font-weight="bold">Nginx
反向代理</text>

  <!-- 连接线: 客户端到Nginx -->
  <line x1="500" y1="130" x2="500" y2="150" stroke="#333" stroke-width="2"/>
  <polygon points="500,150 495,140 505,140" fill="#333"/>

  <!-- 前端服务层 -->
  <rect x="150" y="250" width="180" height="60" rx="8" fill="#673ab7"/>
  <text x="240" y="290" font-family="Arial" font-size="16" text-anchor="middle" fill="white" font-weight="bold">管理前端
(React)</text>

  <!-- API服务层 -->
  <rect x="410" y="250" width="180" height="60" rx="8" fill="#4caf50"/>
  <text x="500" y="290" font-family="Arial" font-size="16" text-anchor="middle" fill="white" font-weight="bold">API服务
(FastAPI)</text>

  <!-- 认证服务层 -->
  <rect x="670" y="250" width="180" height="60" rx="8" fill="#ff9800"/>
  <text x="760" y="290" font-family="Arial" font-size="16" text-anchor="middle" fill="white" font-weight="bold">认证服务
(OIDC Server)</text>

  <!-- 连接线: Nginx到各服务 -->
  <line x1="450" y1="210" x2="450" y2="230" stroke="#333" stroke-width="2"/>
  <line x1="450" y1="230" x2="240" y2="230" stroke="#333" stroke-width="2"/>
  <line x1="240" y1="230" x2="240" y2="250" stroke="#333" stroke-width="2"/>
  <polygon points="240,250 245,240 235,240" fill="#333"/>
  <text x="345" y="220" font-family="Arial" font-size="12" text-anchor="middle">/</text>

  <line x1="500" y1="210" x2="500" y2="250" stroke="#333" stroke-width="2"/>
  <polygon points="500,250 495,240 505,240" fill="#333"/>
  <text x="490" y="230" font-family="Arial" font-size="12" text-anchor="end">/api/</text>

  <line x1="550" y1="210" x2="550" y2="230" stroke="#333" stroke-width="2"/>
  <line x1="550" y1="230" x2="760" y2="230" stroke="#333" stroke-width="2"/>
  <line x1="760" y1="230" x2="760" y2="250" stroke="#333" stroke-width="2"/>
  <polygon points="760,250 765,240 755,240" fill="#333"/>
  <text x="655" y="220" font-family="Arial" font-size="12" text-anchor="middle">/oidc/</text>

  <!-- 数据存储层标题 -->
  <text x="500" y="340" font-family="Arial" font-size="18" text-anchor="middle" font-weight="bold">数据存储层</text>

  <!-- 数据库服务 -->
  <rect x="150" y="370" width="180" height="60" rx="8" fill="#3f51b5"/>
  <text x="240" y="410" font-family="Arial" font-size="16" text-anchor="middle" fill="white" font-weight="bold">PostgreSQL
数据库</text>

  <!-- 缓存服务 -->
  <rect x="410" y="370" width="180" height="60" rx="8" fill="#e91e63"/>
  <text x="500" y="410" font-family="Arial" font-size="16" text-anchor="middle" fill="white" font-weight="bold">Redis
缓存</text>

  <!-- 消息队列服务 -->
  <rect x="670" y="370" width="180" height="60" rx="8" fill="#00bcd4"/>
  <text x="760" y="410" font-family="Arial" font-size="16" text-anchor="middle" fill="white" font-weight="bold">RabbitMQ
消息队列</text>

  <!-- 服务间连接线 -->
  <!-- 管理前端到API服务 -->
  <line x1="330" y1="280" x2="410" y2="280" stroke="#333" stroke-width="2"/>
  <polygon points="410,280 400,275 400,285" fill="#333"/>

  <!-- 管理前端到认证服务 -->
  <line x1="330" y1="280" x2="330" y2="320" stroke="#333" stroke-width="2" stroke-dasharray="5,5"/>
  <line x1="330" y1="320" x2="670" y2="320" stroke="#333" stroke-width="2" stroke-dasharray="5,5"/>
  <line x1="670" y1="320" x2="670" y2="280" stroke="#333" stroke-width="2" stroke-dasharray="5,5"/>
  <polygon points="670,280 680,275 680,285" fill="#333"/>

  <!-- API服务到认证服务 -->
  <line x1="590" y1="280" x2="670" y2="280" stroke="#333" stroke-width="2"/>
  <polygon points="670,280 660,275 660,285" fill="#333"/>

  <!-- API服务到数据库 -->
  <line x1="410" y1="310" x2="410" y2="350" stroke="#333" stroke-width="2"/>
  <line x1="410" y1="350" x2="240" y2="350" stroke="#333" stroke-width="2"/>
  <line x1="240" y1="350" x2="240" y2="370" stroke="#333" stroke-width="2"/>
  <polygon points="240,370 245,360 235,360" fill="#333"/>

  <!-- API服务到缓存 -->
  <line x1="500" y1="310" x2="500" y2="370" stroke="#333" stroke-width="2"/>
  <polygon points="500,370 495,360 505,360" fill="#333"/>

  <!-- API服务到消息队列 -->
  <line x1="590" y1="310" x2="590" y2="350" stroke="#333" stroke-width="2"/>
  <line x1="590" y1="350" x2="760" y2="350" stroke="#333" stroke-width="2"/>
  <line x1="760" y1="350" x2="760" y2="370" stroke="#333" stroke-width="2"/>
  <polygon points="760,370 765,360 755,360" fill="#333"/>

  <!-- 认证服务到数据库 -->
  <line x1="760" y1="310" x2="760" y2="350" stroke="#333" stroke-width="2"/>
  <line x1="760" y1="350" x2="240" y2="350" stroke="#333" stroke-width="2"/>
  <line x1="240" y1="350" x2="240" y2="370" stroke="#333" stroke-width="2"/>
  <polygon points="240,370 245,360 235,360" fill="#333"/>

  <!-- 认证服务到缓存 -->
  <line x1="760" y1="310" x2="760" y2="350" stroke="#333" stroke-width="2"/>
  <line x1="760" y1="350" x2="500" y2="350" stroke="#333" stroke-width="2"/>
  <line x1="500" y1="350" x2="500" y2="370" stroke="#333" stroke-width="2"/>
  <polygon points="500,370 495,360 505,360" fill="#333"/>

  <!-- 健康检查 -->
  <rect x="425" y="460" width="150" height="50" rx="8" fill="#8bc34a"/>
  <text x="500" y="490" font-family="Arial" font-size="14" text-anchor="middle" fill="white" font-weight="bold">健康检查
/health</text>

  <!-- Nginx到健康检查 -->
  <line x1="500" y1="210" x2="500" y2="460" stroke="#333" stroke-width="2"/>
  <polygon points="500,460 495,450 505,450" fill="#333"/>

  <!-- 部署层标题 -->
  <text x="500" y="540" font-family="Arial" font-size="18" text-anchor="middle" font-weight="bold">部署与网络层</text>

  <!-- Docker容器 -->
  <rect x="150" y="570" width="120" height="40" rx="8" fill="#9e9e9e"/>
  <text x="210" y="595" font-family="Arial" font-size="14" text-anchor="middle" fill="white" font-weight="bold">Docker</text>

  <rect x="300" y="570" width="120" height="40" rx="8" fill="#9e9e9e"/>
  <text x="360" y="595" font-family="Arial" font-size="14" text-anchor="middle" fill="white" font-weight="bold">Docker</text>

  <rect x="450" y="570" width="120" height="40" rx="8" fill="#9e9e9e"/>
  <text x="510" y="595" font-family="Arial" font-size="14" text-anchor="middle" fill="white" font-weight="bold">Docker</text>

  <rect x="600" y="570" width="120" height="40" rx="8" fill="#9e9e9e"/>
  <text x="660" y="595" font-family="Arial" font-size="14" text-anchor="middle" fill="white" font-weight="bold">Docker</text>

  <rect x="750" y="570" width="120" height="40" rx="8" fill="#9e9e9e"/>
  <text x="810" y="595" font-family="Arial" font-size="14" text-anchor="middle" fill="white" font-weight="bold">Docker</text>

  <!-- 网络层 -->
  <rect x="100" y="640" width="800" height="40" rx="8" fill="#607d8b"/>
  <text x="500" y="665" font-family="Arial" font-size="16" text-anchor="middle" fill="white" font-weight="bold">phoenixcoder-network 桥接网络</text>

  <!-- 容器到网络连接线 -->
  <line x1="210" y1="610" x2="210" y2="640" stroke="#333" stroke-width="2"/>
  <line x1="360" y1="610" x2="360" y2="640" stroke="#333" stroke-width="2"/>
  <line x1="510" y1="610" x2="510" y2="640" stroke="#333" stroke-width="2"/>
  <line x1="660" y1="610" x2="660" y2="640" stroke="#333" stroke-width="2"/>
  <line x1="810" y1="610" x2="810" y2="640" stroke="#333" stroke-width="2"/>

  <!-- 服务到容器的虚线连接 -->
  <line x1="240" y1="310" x2="210" y2="570" stroke="#333" stroke-width="1" stroke-dasharray="3,3"/>
  <line x1="500" y1="310" x2="360" y2="570" stroke="#333" stroke-width="1" stroke-dasharray="3,3"/>
  <line x1="760" y1="310" x2="510" y2="570" stroke="#333" stroke-width="1" stroke-dasharray="3,3"/>
  <line x1="240" y1="430" x2="660" y2="570" stroke="#333" stroke-width="1" stroke-dasharray="3,3"/>
  <line x1="500" y1="430" x2="660" y2="570" stroke="#333" stroke-width="1" stroke-dasharray="3,3"/>
  <line x1="760" y1="430" x2="810" y2="570" stroke="#333" stroke-width="1" stroke-dasharray="3,3"/>
  <line x1="500" y1="510" x2="360" y2="570" stroke="#333" stroke-width="1" stroke-dasharray="3,3"/>

  <!-- 图例 -->
  <rect x="100" y="690" width="200" height="40" rx="8" fill="#f0f0f0" stroke="#ccc"/>
  <text x="200" y="710" font-family="Arial" font-size="12" text-anchor="middle" fill="#333">实线: 同步通信</text>

  <rect x="350" y="690" width="200" height="40" rx="8" fill="#f0f0f0" stroke="#ccc"/>
  <text x="450" y="710" font-family="Arial" font-size="12" text-anchor="middle" fill="#333">虚线: 异步通信</text>

  <rect x="600" y="690" width="200" height="40" rx="8" fill="#f0f0f0" stroke="#ccc"/>
  <text x="700" y="710" font-family="Arial" font-size="12" text-anchor="middle" fill="#333">箭头方向: 数据流</text>
</svg>